<svg xmlns="http://www.w3.org/2000/svg" xmlns:xlink="http://www.w3.org/1999/xlink"><defs><symbol viewBox="0 0 30 36" id="apple"><path d="M29.371 28.055a19.629 19.629 0 01-1.915 3.48c-1.006 1.45-1.83 2.455-2.466 3.013-.985.916-2.04 1.384-3.17 1.411-.812 0-1.79-.233-2.929-.707-1.142-.47-2.192-.704-3.152-.704-1.007 0-2.087.233-3.242.704-1.157.474-2.089.72-2.801.745-1.084.047-2.164-.436-3.242-1.449-.688-.607-1.549-1.647-2.58-3.12-1.106-1.573-2.016-3.398-2.728-5.477C.383 23.704 0 21.529 0 19.422c0-2.412.516-4.493 1.549-6.237.812-1.4 1.892-2.505 3.244-3.316a8.657 8.657 0 014.385-1.251c.86 0 1.99.269 3.392.798 1.399.53 2.297.8 2.69.8.295 0 1.292-.315 2.984-.942 1.6-.582 2.949-.823 4.055-.728 2.996.244 5.248 1.438 6.745 3.59-2.68 1.64-4.006 3.94-3.98 6.888.025 2.297.85 4.209 2.47 5.727A8.107 8.107 0 0030 26.386c-.198.58-.407 1.136-.629 1.669zM22.5.72c0 1.8-.65 3.482-1.948 5.038-1.565 1.85-3.458 2.918-5.512 2.75a5.656 5.656 0 01-.041-.683c0-1.728.744-3.578 2.066-5.09.66-.766 1.5-1.403 2.518-1.91 1.015-.5 1.976-.778 2.88-.825.026.24.037.481.037.72z" /></symbol><symbol viewBox="0 0 104 102" id="blaze"><path d="M18.5 11.881C8.368 21.031 2 34.272 2 49c0 14.728 6.368 27.968 16.5 37.118M88.19 14.5C96.748 23.473 102 35.623 102 49c0 24.542-17.681 44.954-41 49.192" stroke-width="3" stroke-linecap="round" /><path d="M25.87 21C17.967 28.21 13 38.64 13 50.244c0 11.603 4.967 22.035 12.87 29.244m54.359-56.425C86.902 30.133 91 39.705 91 50.243 91 69.58 77.209 85.662 59.02 89" stroke-width="3" stroke-linecap="round" /><path d="M75.163 34.979H59.614a1 1 0 01-.877-1.48l16.412-30.02A1 1 0 0074.272 2h-32.58a1 1 0 00-.969.75L27.324 54.472a1 1 0 00.968 1.25h13.97a1 1 0 01.977 1.208l-8.416 39.768c-.23 1.086 1.216 1.682 1.818.75l39.362-60.928a1 1 0 00-.84-1.542z" stroke-width="3" stroke-linecap="round" /><path d="M48 11l-8.968 34.875a.1.1 0 00.097.125H53.5" stroke-width="3" stroke-linecap="round" /></symbol><symbol viewBox="0 0 104 100" id="bypass"><path d="M20 89H7a5 5 0 01-5-5V7a5 5 0 015-5h90a5 5 0 015 5v77a5 5 0 01-5 5H83.5" stroke-width="3" stroke-linecap="round" /><path d="M18 80h-6a2 2 0 01-2-2V26a2 2 0 012-2h28m45 56h7a2 2 0 002-2V26a2 2 0 00-2-2H61" stroke-width="3" stroke-linecap="round" /><path d="M11 38h19V25M11 52h14V39M9 66h10V53M93 38H73V25M93 52H79V39M95 66H85V53" stroke-width="3" /><path d="M27 74.703c0-12.425 8.91-17.995 8.91-26.136 3.563 1.714 3.563 17.567 3.563 17.567S48.827 42.568 45.709 31c12.918 11.569 15.145 29.135 15.145 29.135l3.119-17.566S76 55.85 76 68.704c0 14.974-9.864 29.65-24.895 29.288C38.002 97.68 27 89.367 27 74.703z" stroke-width="3" stroke-miterlimit="10" stroke-linecap="round" stroke-linejoin="round" /><path stroke-width="3" d="M2 15.5h100" /><circle cx="9.5" cy="8.5" r="2.5" /><circle cx="18.5" cy="8.5" r="2.5" /><circle cx="27.5" cy="8.5" r="2.5" /></symbol><symbol viewBox="0 0 132 92" id="captcha"><path d="M62.77 20H4a2 2 0 00-2 2v66a2 2 0 002 2h116a2 2 0 002-2V64.5" stroke-width="3" stroke-linecap="round" /><path d="M56 39L35.914 62.923a.1.1 0 01-.14.013L25 53.903" stroke-width="3" stroke-linecap="round" /><path d="M64.002 41l-20.15 24" stroke-width="3" stroke-linecap="round" /><path d="M10 28v52a2 2 0 002 2h102" stroke-width="3" stroke-linecap="round" /><path d="M128.854 10.086c-7.791 0-19.479-2.395-25.437-7.787-.459-.399-1.375-.399-1.834 0-5.958 4.992-16.729 7.787-25.437 7.787-.688 0-1.146.4-1.146.999v23.96C75 44.23 89.896 58.605 101.583 62h1.834C115.104 58.606 130 44.03 130 35.045v-23.96c0-.6-.458-.999-1.146-.999z" stroke-width="3" /><path d="M113.402 34.018c.388-1.2.598-2.482.598-3.814C114 23.464 108.627 18 102 18s-12 5.464-12 12.204c0 4.683 2.593 8.75 6.399 10.796" stroke-width="3" stroke-linecap="round" /><path d="M118.307 32.94l-4.818 4.017a.5.5 0 01-.704-.064l-4.018-4.817" stroke-width="3" stroke-linecap="round" /></symbol><symbol viewBox="0 0 102 104" id="friend"><path d="M19 13.58A49.797 49.797 0 0151 2a49.798 49.798 0 0132 11.58M6.336 74.5C14.57 90.813 31.48 102 51 102s36.43-11.187 44.663-27.5" stroke-width="3" stroke-linecap="round" /><path d="M16 69.55C22.453 82.274 35.703 91 51 91s28.547-8.726 35-21.45M32.5 17.612A39.153 39.153 0 0151 13c6.69 0 12.99 1.67 18.5 4.612" stroke-width="3" stroke-linecap="round" /><path d="M17.21 54.115c.901.728 2.57 2.52 4.29 4.346 1.508 1.601 3.055 3.227 4.16 4.183 8.112 6.824 18.59 14.329 20.28 15.352a8.252 8.252 0 005.07 1.706c2.028 0 4.394 0 5.07-1.706 3.041 3.07 8.111-1.023 8.45-5.117 2.703 2.388 8.787-.682 8.449-5.117 3.042 2.047 9.126-.341 6.76-5.118-2.704-6.14-20.618-19.105-27.04-25.587-5.22 1.916-11.16 8.634-16.899 6.824-5.408-1.706-.338-9.894 3.38-13.647 7.436-7.505 11.83-8.87 20.28-5.117 8.45 3.753 15.209 6.823 15.209 6.823M42.557 26.823h-20.28M72.978 67.762c-2.028-1.706-13.52-13.646-13.52-13.646M64.528 72.88c-2.704-2.389-10.816-10.576-11.83-11.941M56.077 77.997c-2.704-2.388-7.774-7.847-10.14-10.235M2 57.527h13.52s5.745-23.198 6.76-34.115C18.9 20 2 20 2 20v37.527z" stroke-width="3" stroke-miterlimit="10" stroke-linecap="round" stroke-linejoin="round" /><path stroke-width="3" stroke-linecap="round" d="M9.5 27.5v23" /><path d="M72.977 26.823c2.704 4.776 11.83 28.657 13.52 34.116h13.519V23.41c-16.561 0-27.039 3.412-27.039 3.412z" stroke-width="3" stroke-miterlimit="10" stroke-linecap="round" stroke-linejoin="round" /><path stroke-width="3" stroke-linecap="round" d="M92.5 30.5v23" /></symbol><symbol viewBox="0 0 32 36" id="google"><path d="M20.804 16.477L5.499.914l19.473 11.337-4.168 4.226zM1.504 0C.605.478 0 1.35 0 2.483v31.034C0 34.65.603 35.523 1.505 36l17.794-18.003L1.505 0zm29.487 15.866l-4.085-2.399-4.556 4.536 4.556 4.537 4.168-2.399c1.248-1.005 1.248-3.27-.083-4.275zM5.499 35.093l19.473-11.337-4.168-4.226L5.499 35.093z" /></symbol><symbol viewBox="0 0 56 57" id="insta"><path fill-rule="evenodd" clip-rule="evenodd" d="M15.167.997h25.666A15.19 15.19 0 0156 16.164v6.3H40.386c-2.347-4.442-7.013-7.47-12.386-7.47-5.373 0-10.04 3.028-12.386 7.47H0v-6.3A15.19 15.19 0 0115.167.997zm26.802 27.067H56V41.83a15.19 15.19 0 01-15.167 15.167H15.167A15.19 15.19 0 010 41.83V28.064h14.03c-.02.308-.03.618-.03.93 0 7.733 6.268 14 14 14s14-6.267 14-14c0-.312-.01-.622-.03-.93zm-13.967 9.33a8.4 8.4 0 100-16.8 8.4 8.4 0 000 16.8zm17.732-23.332a2.8 2.8 0 100-5.6 2.8 2.8 0 000 5.6z" /></symbol><symbol viewBox="0 0 30 30" id="question"><circle cx="15" cy="15" r="15" /><rect x="15" y="19" width="11" height="11" rx="1" /><path d="M9.88 11.484h3.806c0-.572.044-1.672.836-1.672.726 0 .836 1.1.836 1.628 0 1.298-.682 1.826-2.046 1.826-.198 0-.396-.022-.594-.044v3.498h3.762v-1.408c1.936-.528 2.816-2.134 2.816-3.938 0-2.794-1.958-4.818-4.774-4.818-1.562 0-3.234.704-4.026 2.09-.572.99-.616 1.672-.616 2.838zm2.53 8.492c0 1.232.99 2.244 2.222 2.244s2.222-1.034 2.222-2.244c0-1.232-.99-2.222-2.222-2.222s-2.222.99-2.222 2.222z" /></symbol><symbol viewBox="0 0 30 30" id="question2"><circle cx="15" cy="15" r="15" /><rect x="15" y="19" width="11" height="11" rx="1" /><path d="M9.88 11.484h3.806c0-.572.044-1.672.836-1.672.726 0 .836 1.1.836 1.628 0 1.298-.682 1.826-2.046 1.826-.198 0-.396-.022-.594-.044v3.498h3.762v-1.408c1.936-.528 2.816-2.134 2.816-3.938 0-2.794-1.958-4.818-4.774-4.818-1.562 0-3.234.704-4.026 2.09-.572.99-.616 1.672-.616 2.838zm2.53 8.492c0 1.232.99 2.244 2.222 2.244s2.222-1.034 2.222-2.244c0-1.232-.99-2.222-2.222-2.222s-2.222.99-2.222 2.222z" /></symbol><symbol viewBox="0 0 106 104" id="restock"><path d="M17.301 16C26.293 7.331 38.524 2 52 2c22.146 0 40.93 14.398 47.5 34.344m-7 44.984C83.414 93.854 68.658 102 52 102s-31.414-8.146-40.5-20.672" stroke-width="3" stroke-linecap="round" /><path d="M27.965 22.227C34.695 16.47 43.402 13 52.912 13 65.072 13 75.92 18.675 83 27.544m-2.175 51.412C73.793 86.378 63.887 91 52.912 91c-9.03 0-17.335-3.129-23.912-8.371" stroke-width="3" stroke-linecap="round" /><path d="M9.206 89.192l.502-9.487a.5.5 0 01.526-.473l9.486.502M103.835 28.448l-3.276 8.918a.5.5 0 01-.642.297L91 34.386" stroke-width="3" stroke-linecap="round" /><path d="M6.496 68.5h91.646c2.42 0 4.15-2.075 4.15-4.15v-2.766H2v2.766c0 2.075 2.075 4.15 4.496 4.15z" stroke-width="3" stroke-miterlimit="10" stroke-linecap="round" stroke-linejoin="round" /><path d="M54.278 31l-7.256 10.674M62.278 35l-5.92 8.894M70.305 39.02l-4.307 6.635" stroke-width="3" stroke-linecap="round" /><path d="M2 61.583V27h5.533c1.73 0 3.459 1.038 4.496 2.42 1.73 2.422 6.225 4.497 14.18 4.497 6.916 0 10.72-1.038 12.795-3.459C41.08 28.038 43.846 27 46.958 27c1.73 0 3.459.346 5.188 1.383l22.479 10.721c3.804 2.075 8.3 4.15 12.796 5.188 5.879 1.383 14.871 7.954 14.871 17.291M8 47c8.167 0 14.583 6.077 14.583 14.584M85.75 43.924c-4.889-.719-11 11.97-11 11.97" stroke-width="3" stroke-miterlimit="10" stroke-linecap="round" stroke-linejoin="round" /></symbol><symbol viewBox="0 0 143 76" id="tasks"><circle cx="38" cy="38" r="17" stroke-width="3" /><path d="M38 64c-14.36 0-26-11.64-26-26s11.64-26 26-26c10.809 0 20.078 6.596 24 15.982" stroke-width="3" stroke-linecap="round" /><circle cx="105" cy="38" r="17" stroke-width="3" /><path d="M105 12c14.359 0 26 11.64 26 26s-11.641 26-26 26c-10.816 0-20.09-6.604-24.007-16" stroke-width="3" stroke-linecap="round" /><path d="M38 74C18.118 74 2 57.882 2 38M141 38c0-19.882-16.118-36-36-36" stroke-width="3" stroke-linecap="round" /><path d="M38 64c-14.36 0-26-11.64-26-26s11.64-26 26-26M105 64c14.359 0 26-11.64 26-26s-11.641-26-26-26" stroke-width="3" /><path d="M104.851 13.493a1.5 1.5 0 00.298-2.986l-.298 2.986zM37.5 64a96.164 96.164 0 00-.102 1.496h.002l.007.001.02.001.062.004.216.008c.184.004.445.007.776 0a25.588 25.588 0 002.778-.222c2.337-.309 5.572-1.021 9.222-2.635 7.332-3.24 16.224-10.064 22.877-24.267l-2.716-1.272C64.295 50.66 55.937 56.962 49.269 59.909c-3.35 1.48-6.302 2.127-8.403 2.405-1.05.138-1.885.184-2.449.197a13.34 13.34 0 01-.782-.006l-.03-.001H37.6h.002c.002 0 .002 0-.102 1.496zm35.858-25.614c6.357-13.569 14.353-19.735 20.63-22.548 3.155-1.414 5.91-1.996 7.86-2.227a19.281 19.281 0 012.266-.143 11.401 11.401 0 01.713.023c.014 0 .022.002.026.002h.003-.002-.001c-.001 0-.002 0 .147-1.493s.148-1.493.147-1.493h-.01l-.019-.002a5.206 5.206 0 00-.267-.019c-.174-.009-.421-.018-.734-.018-.627 0-1.518.033-2.622.164-2.206.26-5.263.913-8.733 2.468-6.973 3.124-15.477 9.833-22.12 24.014l2.716 1.272z" /></symbol><symbol viewBox="0 0 20 16" id="tick"><path d="M2 7.5l5 5 11-11" stroke-width="4" /></symbol><symbol viewBox="0 0 68 57" id="twitter"><path d="M67.614 7.818a1.474 1.474 0 00-1.768-.314c-.37.19-1.065.439-1.89.685 1.041-1.388 1.878-2.94 2.248-4.337a1.478 1.478 0 00-2.276-1.595c-.802.56-4.67 2.244-7.114 2.79C51.288.194 44.858-.31 38.174 3.603c-5.435 3.18-6.617 9.649-6.387 13.592-12.438-1.201-20.169-7.788-24.52-13.24a1.51 1.51 0 00-1.257-.554 1.488 1.488 0 00-1.171.724C2.78 7.608 2.21 11.459 3.195 15.262a15.859 15.859 0 002.57 5.386 8.05 8.05 0 01-1.506-.966 1.482 1.482 0 00-1.567-.19 1.485 1.485 0 00-.842 1.34c0 6.53 4.074 10.888 7.879 13.165a11.029 11.029 0 01-1.904-.41 1.482 1.482 0 00-1.78 2.028c2.138 4.74 6.188 8 11.2 9.184-4.376 2.576-10.233 3.839-15.596 3.219-.695-.098-1.357.344-1.576 1.014-.219.67.068 1.405.68 1.749 8.136 4.58 15.492 6.216 21.848 6.216 9.251 0 16.391-3.462 20.737-6.358 11.717-7.797 19.02-21.795 18.002-34.319 1.877-1.39 4.686-3.957 6.428-6.717a1.468 1.468 0 00-.154-1.785z" /></symbol></defs></svg>