<svg width="104" height="102" viewBox="0 0 104 102" fill="none" xmlns="http://www.w3.org/2000/svg">
<path d="M18.5 11.8813C8.36763 21.0317 2 34.2722 2 48.9999C2 63.7277 8.36763 76.9682 18.5 86.1185M88.1906 14.4999C96.7467 23.4727 102 35.6228 102 48.9999C102 73.5416 84.3188 93.9535 61 98.1921" stroke="#FFD500" stroke-width="3" stroke-linecap="round"/>
<path d="M25.87 21C17.9668 28.2091 13 38.6407 13 50.2439C13 61.8472 17.9668 72.2787 25.87 79.4878M80.2287 23.0631C86.9024 30.1322 91 39.7047 91 50.2439C91 69.579 77.2086 85.6606 59.02 89" stroke="#50AAF5" stroke-width="3" stroke-linecap="round"/>
<path d="M75.1634 34.9787H59.6143C58.8548 34.9787 58.3725 34.1654 58.7368 33.499L75.1493 3.47972C75.5137 2.81332 75.0314 2 74.2719 2H41.6915C41.2358 2 40.8377 2.30808 40.7234 2.74922L27.324 54.4726C27.16 55.1058 27.638 55.7234 28.2921 55.7234H42.2611C42.8967 55.7234 43.371 56.3086 43.2394 56.9305L34.8228 96.6994C34.593 97.7851 36.0389 98.3813 36.6411 97.4491L76.0034 36.5214C76.4333 35.856 75.9556 34.9787 75.1634 34.9787Z" stroke="white" stroke-width="3" stroke-linecap="round"/>
<path d="M48 11L39.0321 45.8751C39.0158 45.9384 39.0636 46 39.129 46H53.5" stroke="#FFD500" stroke-width="3" stroke-linecap="round"/>
</svg>
