<svg width="132" height="92" viewBox="0 0 132 92" fill="none" xmlns="http://www.w3.org/2000/svg">
<path d="M62.7692 20H4C2.89543 20 2 20.8954 2 22V88C2 89.1046 2.89543 90 4 90H120C121.105 90 122 89.1046 122 88V64.5" stroke="white" stroke-width="3" stroke-linecap="round"/>
<path d="M56 39L35.9143 62.9235C35.8788 62.9657 35.8157 62.9713 35.7734 62.9358L25 53.903" stroke="white" stroke-width="3" stroke-linecap="round"/>
<path d="M64.0016 41L43.8516 65" stroke="#FFD500" stroke-width="3" stroke-linecap="round"/>
<path d="M10 28V80C10 81.1046 10.8954 82 12 82H114" stroke="#50AAF5" stroke-width="3" stroke-linecap="round"/>
<path d="M128.854 10.0865C121.063 10.0865 109.375 7.69052 103.417 2.2995C102.958 1.90017 102.042 1.90017 101.583 2.2995C95.625 7.29118 84.8542 10.0865 76.1458 10.0865C75.4583 10.0865 75 10.4859 75 11.0849V35.0449C75 44.2296 89.8958 58.6057 101.583 62C101.813 62 102.271 62 102.5 62C102.729 62 103.188 62 103.417 62C115.104 58.6057 130 44.03 130 35.0449V11.0849C130 10.4859 129.542 10.0865 128.854 10.0865Z" stroke="#FFD500" stroke-width="3"/>
<path d="M113.402 34.0179C113.79 32.818 114 31.5359 114 30.2041C114 23.464 108.627 18 102 18C95.3726 18 90 23.464 90 30.2041C90 34.8868 92.5933 38.9536 96.399 41" stroke="white" stroke-width="3" stroke-linecap="round"/>
<path d="M118.307 32.9394L113.489 36.9571C113.277 37.134 112.962 37.1054 112.785 36.8933L108.767 32.0756" stroke="white" stroke-width="3" stroke-linecap="round"/>
</svg>
