<svg width="102" height="104" viewBox="0 0 102 104" fill="none" xmlns="http://www.w3.org/2000/svg">
<path d="M19 13.5796C27.671 6.34972 38.8275 2 51 2C63.1724 2 74.3289 6.34972 83 13.5796M6.33643 74.5C14.5705 90.8129 31.4788 102 51 102C70.5211 102 87.4294 90.8129 95.6635 74.5" stroke="#FFD500" stroke-width="3" stroke-linecap="round"/>
<path d="M16 69.55C22.4525 82.2741 35.7025 91 51 91C66.2975 91 79.5475 82.2741 86 69.55M32.5 17.6123C38.01 14.6693 44.3092 13 51 13C57.6908 13 63.99 14.6693 69.5 17.6123" stroke="#50AAF5" stroke-width="3" stroke-linecap="round"/>
<path d="M17.2107 54.1154C18.1112 54.8426 19.7796 56.6355 21.4998 58.4615C23.0076 60.0621 24.5553 61.6882 25.6604 62.6444C33.7722 69.4676 44.2498 76.973 45.9398 77.9965C47.2917 79.02 48.9817 79.7023 51.0096 79.7023C53.0375 79.7023 55.4035 79.7023 56.0794 77.9965C59.1213 81.0669 64.1912 76.973 64.5292 72.8791C67.2331 75.2672 73.3169 72.1968 72.9789 67.7618C76.0208 69.8087 82.1046 67.4206 79.7387 62.6444C77.0348 56.5035 59.1213 43.5395 52.6996 37.0575C47.4798 38.9734 41.5397 45.6911 35.8001 43.8807C30.3923 42.1749 35.4621 33.9871 39.18 30.2343C46.6157 22.7289 51.0096 21.3642 59.4593 25.117C67.9091 28.8697 74.6688 31.9401 74.6688 31.9401" stroke="white" stroke-width="3" stroke-miterlimit="10" stroke-linecap="round" stroke-linejoin="round"/>
<path d="M42.5567 26.823C37.4869 26.823 26.3332 26.823 22.2773 26.823" stroke="white" stroke-width="3" stroke-miterlimit="10" stroke-linecap="round" stroke-linejoin="round"/>
<path d="M72.9776 67.7621C70.9496 66.0563 59.458 54.1157 59.458 54.1157" stroke="white" stroke-width="3" stroke-miterlimit="10" stroke-linecap="round" stroke-linejoin="round"/>
<path d="M64.5281 72.8795C61.8242 70.4914 53.7125 62.3036 52.6985 60.939" stroke="white" stroke-width="3" stroke-miterlimit="10" stroke-linecap="round" stroke-linejoin="round"/>
<path d="M56.0772 77.997C53.3733 75.6088 48.3034 70.1503 45.9375 67.7622" stroke="white" stroke-width="3" stroke-miterlimit="10" stroke-linecap="round" stroke-linejoin="round"/>
<path d="M2 57.5274C7.40783 57.5274 15.5196 57.5274 15.5196 57.5274C15.5196 57.5274 21.2654 34.3287 22.2793 23.4116C18.8995 20 2 20 2 20C2 20 2 41.8341 2 57.5274Z" stroke="white" stroke-width="3" stroke-miterlimit="10" stroke-linecap="round" stroke-linejoin="round"/>
<line x1="9.5" y1="27.5" x2="9.5" y2="50.5" stroke="#FFD500" stroke-width="3" stroke-linecap="round"/>
<path d="M72.9773 26.823C75.6812 31.5992 84.8069 55.4803 86.4969 60.9388C90.2147 60.9388 100.016 60.9388 100.016 60.9388C100.016 60.9388 100.016 32.6227 100.016 23.4114C83.455 23.4114 72.9773 26.823 72.9773 26.823Z" stroke="white" stroke-width="3" stroke-miterlimit="10" stroke-linecap="round" stroke-linejoin="round"/>
<line x1="92.5" y1="30.5" x2="92.5" y2="53.5" stroke="#FFD500" stroke-width="3" stroke-linecap="round"/>
</svg>
