<svg width="56" height="57" viewBox="0 0 56 57" fill="none" xmlns="http://www.w3.org/2000/svg">
<path fill-rule="evenodd" clip-rule="evenodd" d="M15.1667 0.99707H40.8333C44.8539 1.00324 48.708 2.60314 51.551 5.4461C54.3939 8.28907 55.9938 12.1432 56 16.1637V22.4638H40.3864C38.0395 18.0219 33.3733 14.9948 28 14.9948C22.6267 14.9948 17.9605 18.0219 15.6136 22.4638H0V16.1637C0.00617124 12.1432 1.60607 8.28907 4.44903 5.4461C7.292 2.60314 11.1461 1.00324 15.1667 0.99707ZM41.9695 28.0638H56V41.8304C55.9938 45.851 54.3939 49.7051 51.551 52.548C48.708 55.391 44.8539 56.9909 40.8333 56.9971H15.1667C11.1461 56.9909 7.292 55.391 4.44903 52.548C1.60607 49.7051 0.00617124 45.851 0 41.8304V28.0638H14.0305C14.0103 28.3715 14 28.682 14 28.9948C14 36.7268 20.268 42.9949 28 42.9949C35.732 42.9949 42 36.7268 42 28.9948C42 28.682 41.9897 28.3715 41.9695 28.0638ZM28.0022 37.3948C32.6414 37.3948 36.4022 33.634 36.4022 28.9948C36.4022 24.3556 32.6414 20.5948 28.0022 20.5948C23.363 20.5948 19.6022 24.3556 19.6022 28.9948C19.6022 33.634 23.363 37.3948 28.0022 37.3948ZM45.7341 14.0615C47.2805 14.0615 48.5341 12.8078 48.5341 11.2615C48.5341 9.71506 47.2805 8.46145 45.7341 8.46145C44.1877 8.46145 42.9341 9.71506 42.9341 11.2615C42.9341 12.8078 44.1877 14.0615 45.7341 14.0615Z" fill="black"/>
</svg>
