<svg width="30" height="30" viewBox="0 0 30 30" fill="none" xmlns="http://www.w3.org/2000/svg">
<circle cx="15" cy="15" r="15" fill="#FFD500"/>
<rect x="15" y="19" width="11" height="11" rx="1" fill="#FFD500"/>
<path d="M9.88 11.484H13.686C13.686 10.912 13.73 9.812 14.522 9.812C15.248 9.812 15.358 10.912 15.358 11.44C15.358 12.738 14.676 13.266 13.312 13.266C13.114 13.266 12.916 13.244 12.718 13.222V16.72H16.48V15.312C18.416 14.784 19.296 13.178 19.296 11.374C19.296 8.58 17.338 6.556 14.522 6.556C12.96 6.556 11.288 7.26 10.496 8.646C9.924 9.636 9.88 10.318 9.88 11.484ZM12.41 19.976C12.41 21.208 13.4 22.22 14.632 22.22C15.864 22.22 16.854 21.186 16.854 19.976C16.854 18.744 15.864 17.754 14.632 17.754C13.4 17.754 12.41 18.744 12.41 19.976Z" fill="black"/>
</svg>
