<svg width="106" height="104" viewBox="0 0 106 104" fill="none" xmlns="http://www.w3.org/2000/svg">
<path d="M17.3012 16C26.2929 7.33137 38.5238 2 52 2C74.1462 2 92.9296 16.3981 99.5 36.3442M92.5 81.3276C83.4136 93.8537 68.6581 102 52 102C35.3419 102 20.5864 93.8537 11.5 81.3276" stroke="#FFD500" stroke-width="3" stroke-linecap="round"/>
<path d="M27.9646 22.2265C34.6947 16.4709 43.4021 13 52.9124 13C65.0727 13 75.9204 18.6746 83.0001 27.5444M80.8247 78.9559C73.7932 86.3777 63.8874 91 52.9124 91C43.8828 91 35.5769 87.8711 29.0001 82.6285" stroke="#50AAF5" stroke-width="3" stroke-linecap="round"/>
<path d="M9.20594 89.1916L9.70795 79.7049C9.72255 79.4291 9.95792 79.2174 10.2337 79.232L19.7204 79.734" stroke="#FFD500" stroke-width="3" stroke-linecap="round"/>
<path d="M103.835 28.4484L100.559 37.3656C100.464 37.6248 100.177 37.7578 99.9174 37.6625L91.0001 34.3865" stroke="#FFD500" stroke-width="3" stroke-linecap="round"/>
<path d="M6.49583 68.5002H98.1417C100.562 68.5002 102.292 66.4252 102.292 64.3502V61.5835H2V64.3502C2 66.4252 4.075 68.5002 6.49583 68.5002Z" stroke="white" stroke-width="3" stroke-miterlimit="10" stroke-linecap="round" stroke-linejoin="round"/>
<path d="M54.2778 31.0001L47.0221 41.6743" stroke="#50AAF5" stroke-width="3" stroke-linecap="round"/>
<path d="M62.2778 35.0001L56.3571 43.8943" stroke="#50AAF5" stroke-width="3" stroke-linecap="round"/>
<path d="M70.3054 39.0195L65.9982 45.655" stroke="#50AAF5" stroke-width="3" stroke-linecap="round"/>
<path d="M2 61.5833V27H7.53333C9.2625 27 10.9917 28.0375 12.0292 29.4208C13.7583 31.8417 18.2542 33.9167 26.2083 33.9167C33.125 33.9167 36.9292 32.8792 39.0042 30.4583C41.0792 28.0375 43.8458 27 46.9583 27C48.6875 27 50.4167 27.3458 52.1458 28.3833L74.625 39.1042C78.4292 41.1792 82.925 43.2542 87.4208 44.2917C93.3 45.675 102.292 52.2458 102.292 61.5833" stroke="white" stroke-width="3" stroke-miterlimit="10" stroke-linecap="round" stroke-linejoin="round"/>
<path d="M8 47.0002C16.1667 47.0002 22.5833 53.0766 22.5833 61.5836" stroke="white" stroke-width="3" stroke-miterlimit="10" stroke-linecap="round" stroke-linejoin="round"/>
<path d="M85.75 43.9237C80.8611 43.2054 74.75 55.8943 74.75 55.8943" stroke="white" stroke-width="3" stroke-miterlimit="10" stroke-linecap="round" stroke-linejoin="round"/>
</svg>
