<svg width="143" height="76" viewBox="0 0 143 76" fill="none" xmlns="http://www.w3.org/2000/svg">
<circle cx="38" cy="38" r="17" stroke="#FFD500" stroke-width="3"/>
<path d="M38 64C23.6406 64 12 52.3594 12 38C12 23.6406 23.6406 12 38 12C48.809 12 58.0775 18.5959 62 27.9824" stroke="white" stroke-width="3" stroke-linecap="round"/>
<circle cx="105" cy="38" r="17" stroke="#FFD500" stroke-width="3"/>
<path d="M105 12C119.359 12 131 23.6406 131 38C131 52.3594 119.359 64 105 64C94.1842 64 84.9109 57.3958 80.9927 48" stroke="white" stroke-width="3" stroke-linecap="round"/>
<path d="M38 74C18.1178 74 2 57.8823 2 38" stroke="#50AAF5" stroke-width="3" stroke-linecap="round"/>
<path d="M141 38C141 18.1178 124.882 2 105 2" stroke="#50AAF5" stroke-width="3" stroke-linecap="round"/>
<path d="M38 64C23.6406 64 12 52.3594 12 38C12 23.6406 23.6406 12 38 12" stroke="white" stroke-width="3"/>
<path d="M105 64C119.359 64 131 52.3594 131 38C131 23.6406 119.359 12 105 12" stroke="white" stroke-width="3"/>
<path d="M104.851 13.4926C105.675 13.575 106.41 12.9736 106.493 12.1493C106.575 11.3249 105.974 10.5899 105.149 10.5074L104.851 13.4926ZM37.5 64C37.3956 65.4963 37.3966 65.4964 37.3978 65.4965C37.3983 65.4965 37.3995 65.4966 37.4005 65.4967C37.4024 65.4968 37.4047 65.4969 37.4073 65.4971C37.4125 65.4974 37.4191 65.4978 37.4269 65.4983C37.4426 65.4992 37.4635 65.5004 37.4894 65.5017C37.5413 65.5042 37.6136 65.5071 37.7053 65.5095C37.8887 65.5143 38.1499 65.517 38.4814 65.5099C39.1444 65.4956 40.0901 65.4422 41.2588 65.2879C43.5957 64.9793 46.8309 64.2666 50.4814 62.6533C57.813 59.413 66.7049 52.5891 73.3583 38.3864L70.6417 37.1137C64.2951 50.6612 55.937 56.9622 49.2686 59.9093C45.9191 61.3897 42.9668 62.0363 40.8662 62.3137C39.8161 62.4523 38.9806 62.4985 38.417 62.5106C38.1353 62.5166 37.9219 62.5142 37.784 62.5105C37.715 62.5087 37.665 62.5066 37.6347 62.5052C37.6196 62.5044 37.6094 62.5039 37.6044 62.5036C37.6018 62.5034 37.6005 62.5033 37.6005 62.5033C37.6005 62.5033 37.6009 62.5033 37.6015 62.5034C37.6018 62.5034 37.6026 62.5035 37.6027 62.5035C37.6035 62.5035 37.6044 62.5036 37.5 64ZM73.3583 38.3864C79.715 24.8173 87.7107 18.6507 93.9884 15.8376C97.1428 14.424 99.8985 13.8416 101.848 13.6107C102.823 13.4952 103.596 13.4678 104.114 13.4683C104.373 13.4685 104.568 13.4757 104.693 13.4822C104.756 13.4855 104.801 13.4887 104.827 13.4907C104.841 13.4917 104.849 13.4925 104.853 13.4928C104.855 13.493 104.856 13.4931 104.856 13.493C104.855 13.493 104.855 13.493 104.854 13.4929C104.854 13.4928 104.853 13.4928 104.853 13.4927C104.852 13.4927 104.851 13.4926 105 12C105.149 10.5074 105.148 10.5073 105.147 10.5072C105.146 10.5072 105.145 10.507 105.144 10.5069C105.142 10.5067 105.14 10.5065 105.137 10.5063C105.132 10.5058 105.125 10.5052 105.118 10.5045C105.102 10.5031 105.082 10.5014 105.057 10.4995C105.007 10.4957 104.938 10.491 104.851 10.4864C104.677 10.4772 104.43 10.4685 104.117 10.4683C103.49 10.4677 102.599 10.5009 101.495 10.6315C99.289 10.8928 96.2322 11.5447 92.7616 13.0999C85.7893 16.2243 77.285 22.9327 70.6417 37.1137L73.3583 38.3864Z" fill="white"/>
</svg>
