<svg width="68" height="57" viewBox="0 0 68 57" fill="none" xmlns="http://www.w3.org/2000/svg">
<path d="M67.6138 7.81824C67.1644 7.32319 66.4401 7.19869 65.8459 7.50402C65.4763 7.69374 64.7815 7.94275 63.9567 8.18879C64.9973 6.80147 65.834 5.24814 66.2036 3.85192C66.3632 3.25015 66.1297 2.61578 65.6212 2.25709C65.1126 1.90137 64.4356 1.90137 63.9271 2.25709C63.1259 2.81736 59.2588 4.50112 56.8138 5.04656C51.2881 0.193894 44.8578 -0.310048 38.1732 3.60291C32.7391 6.78368 31.5565 13.2519 31.7872 17.1945C19.3492 15.994 11.618 9.40714 7.26607 3.95567C6.96156 3.57327 6.47078 3.37169 6.00957 3.40134C5.52471 3.43691 5.08715 3.70667 4.8388 4.12464C2.78109 7.60777 2.21049 11.4585 3.195 15.2618C3.73308 17.3368 4.67324 19.1658 5.76418 20.648C5.24088 20.3901 4.73532 20.067 4.25933 19.6816C3.82177 19.32 3.20978 19.2518 2.69239 19.4919C2.17797 19.738 1.8498 20.2597 1.8498 20.8318C1.8498 27.3623 5.92383 31.7199 9.72883 33.9966C9.11388 33.9224 8.47232 33.7861 7.82485 33.5875C7.26903 33.4185 6.66591 33.5875 6.28157 34.0262C5.89722 34.462 5.80557 35.0845 6.04505 35.6151C8.18258 40.3551 12.233 43.6159 17.2442 44.7987C12.8686 47.3747 7.01182 48.6376 1.64876 48.018C0.953982 47.9202 0.291729 48.3619 0.0729492 49.0318C-0.145831 49.7018 0.140948 50.4369 0.752941 50.7808C8.88918 55.3607 16.2449 56.9971 22.6014 56.9971C31.8522 56.9971 38.9921 53.5347 43.3381 50.6385C55.0547 42.8422 62.3572 28.8445 61.3402 16.32C63.2175 14.9298 66.0262 12.3626 67.7676 9.60279C68.1283 9.04549 68.0632 8.31033 67.6138 7.81824Z" fill="black"/>
</svg>
